<svg version="1.1" xmlns="http://www.w3.org/2000/svg" viewBox="0 0 749.7253698496543 680.1230981470455" width="1499.4507396993085" height="1360.246196294091">
  <!-- svg-source:excalidraw -->
  
  <defs>
    <style class="style-fonts">
      @font-face {
        font-family: "Virgil";
        src: url("https://excalidraw.com/Virgil.woff2");
      }
      @font-face {
        font-family: "Cascadia";
        src: url("https://excalidraw.com/Cascadia.woff2");
      }
    </style>
  </defs>
  <g stroke-linecap="round" transform="translate(160.4485886367064 24.86209142085707) rotate(0 76 28)"><path d="M14 0 M14 0 C59.03 0.61, 102.52 3.01, 138 0 M14 0 C47.57 -0.32, 80.79 -0.59, 138 0 M138 0 C148.44 1.77, 150.82 3.07, 152 14 M138 0 C145.2 0.46, 150.45 6.67, 152 14 M152 14 C151.59 21.5, 150.53 26.55, 152 42 M152 14 C152.01 24.01, 151.2 33.65, 152 42 M152 42 C153.73 51.73, 145.76 55.78, 138 56 M152 42 C150.75 51.62, 146.11 57.09, 138 56 M138 56 C103.75 56.83, 67.81 56.06, 14 56 M138 56 C96.07 57.23, 52.81 56.25, 14 56 M14 56 C6.58 54.56, -1.45 50.85, 0 42 M14 56 C4.22 56.66, 2.25 51.5, 0 42 M0 42 C1.27 33.75, -1.74 22.02, 0 14 M0 42 C-0.38 34.89, -0.05 26.59, 0 14 M0 14 C-1.39 6.29, 5.52 -1.19, 14 0 M0 14 C-1.19 3.66, 6.77 0.33, 14 0" stroke="#000000" stroke-width="1" fill="none"></path></g><g transform="translate(171.01261451561265 35.36209142085707) rotate(0 65.43597412109375 17.5)"><text x="65.43597412109375" y="0" font-family="Virgil, Segoe UI Emoji" font-size="28px" fill="#000000" text-anchor="middle" style="white-space: pre;" direction="ltr" dominant-baseline="text-before-edge">raw data</text></g><g stroke-linecap="round" transform="translate(132.8964181448614 162.4103831017814) rotate(0 107.5 44.5)"><path d="M22.25 0 M22.25 0 C76.37 0.86, 132.13 1.08, 192.75 0 M22.25 0 C83.57 0.15, 146.53 1.39, 192.75 0 M192.75 0 C207.64 1.15, 213.93 5.48, 215 22.25 M192.75 0 C207.91 -0.68, 213.03 7.43, 215 22.25 M215 22.25 C213.02 30.29, 213.94 38.4, 215 66.75 M215 22.25 C215.56 36.93, 215.29 51.41, 215 66.75 M215 66.75 C216.58 82.53, 206.1 88.42, 192.75 89 M215 66.75 C216.38 80.05, 206.3 89.7, 192.75 89 M192.75 89 C124 87.59, 58.08 88.08, 22.25 89 M192.75 89 C129.21 88.82, 66.68 88.74, 22.25 89 M22.25 89 C7.92 89.04, 0.65 81.91, 0 66.75 M22.25 89 C9.47 87.29, -2.02 79.9, 0 66.75 M0 66.75 C-1.65 49.52, 1.55 34.01, 0 22.25 M0 66.75 C0.44 53.37, 0.98 37.76, 0 22.25 M0 22.25 C-1.54 8.32, 9.15 -0.58, 22.25 0 M0 22.25 C2.1 7.48, 5.43 1.98, 22.25 0" stroke="#000000" stroke-width="1" fill="none"></path></g><g transform="translate(141.82247405306452 171.9103831017814) rotate(0 98.57394409179688 35)"><text x="98.57394409179688" y="0" font-family="Virgil, Segoe UI Emoji" font-size="28px" fill="#000000" text-anchor="middle" style="white-space: pre;" direction="ltr" dominant-baseline="text-before-edge">intermediate </text><text x="98.57394409179688" y="35" font-family="Virgil, Segoe UI Emoji" font-size="28px" fill="#000000" text-anchor="middle" style="white-space: pre;" direction="ltr" dominant-baseline="text-before-edge">representation</text></g><g stroke-linecap="round"><g transform="translate(238.12445061532253 81.97459142085705) rotate(0 -1.5285951239158635 39.99340585349117)"><path d="M0.3 -0.61 C-0.31 12.71, -2.73 65.67, -3.36 79.15 M-1 1.69 C-1.25 15.27, -1.03 67.81, -1.04 80.59" stroke="#000000" stroke-width="1" fill="none"></path></g><g transform="translate(238.12445061532253 81.97459142085705) rotate(0 -1.5285951239158635 39.99340585349117)"><path d="M-12.36 51.17 C-8.46 60.16, -3.26 70.44, -1.27 81.18 M-11.75 51.77 C-8.77 62.68, -4.94 72.45, -0.84 80.62" stroke="#000000" stroke-width="1" fill="none"></path></g><g transform="translate(238.12445061532253 81.97459142085705) rotate(0 -1.5285951239158635 39.99340585349117)"><path d="M8.16 51.14 C5.36 60.18, 3.86 70.48, -1.27 81.18 M8.77 51.73 C4.7 62.76, 1.48 72.55, -0.84 80.62" stroke="#000000" stroke-width="1" fill="none"></path></g></g><mask></mask><g stroke-linecap="round"><g transform="translate(483.0186118138736 52.30402461108602) rotate(0 -82.81778601466118 0.30377995893903176)"><path d="M-0.49 -0.97 C-28.01 -0.85, -137.54 1.08, -165.14 1.57" stroke="#495057" stroke-width="1.5" fill="none" stroke-dasharray="1.5 7"></path></g><g transform="translate(483.0186118138736 52.30402461108602) rotate(0 -82.81778601466118 0.30377995893903176)"><path d="M-138.74 -8.91 C-146.12 -7.41, -153.72 -3.53, -167.14 0.73" stroke="#495057" stroke-width="1.5" fill="none" stroke-dasharray="1.5 5"></path></g><g transform="translate(483.0186118138736 52.30402461108602) rotate(0 -82.81778601466118 0.30377995893903176)"><path d="M-138.39 11.61 C-146.02 7.04, -153.73 4.85, -167.14 0.73" stroke="#495057" stroke-width="1.5" fill="none" stroke-dasharray="1.5 5"></path></g></g><mask></mask><g stroke-linecap="round"><g transform="translate(476.3126759606221 204.82825284136328) rotate(0 -63.38715466705577 0.8636521771901187)"><path d="M0.85 -0.16 C-20.24 -0.01, -106.21 1.26, -127.63 1.89" stroke="#495057" stroke-width="1.5" fill="none" stroke-dasharray="1.5 7"></path></g><g transform="translate(476.3126759606221 204.82825284136328) rotate(0 -63.38715466705577 0.8636521771901187)"><path d="M-99.92 -9.31 C-107.32 -6.88, -110.3 -6.2, -129.05 -0.07" stroke="#495057" stroke-width="1.5" fill="none" stroke-dasharray="1.5 5"></path></g><g transform="translate(476.3126759606221 204.82825284136328) rotate(0 -63.38715466705577 0.8636521771901187)"><path d="M-99.49 11.21 C-107.16 9.35, -110.23 5.74, -129.05 -0.07" stroke="#495057" stroke-width="1.5" fill="none" stroke-dasharray="1.5 5"></path></g></g><mask></mask><g transform="translate(488.38045499319935 10) rotate(0 74.45595550537104 50)"><text x="0" y="0" font-family="Virgil, Segoe UI Emoji" font-size="16px" fill="#495057" text-anchor="start" style="white-space: pre;" direction="ltr" dominant-baseline="text-before-edge">{</text><text x="0" y="20" font-family="Virgil, Segoe UI Emoji" font-size="16px" fill="#495057" text-anchor="start" style="white-space: pre;" direction="ltr" dominant-baseline="text-before-edge">  "sequence_id" : 1,</text><text x="0" y="40" font-family="Virgil, Segoe UI Emoji" font-size="16px" fill="#495057" text-anchor="start" style="white-space: pre;" direction="ltr" dominant-baseline="text-before-edge">  "value": 200,</text><text x="0" y="60" font-family="Virgil, Segoe UI Emoji" font-size="16px" fill="#495057" text-anchor="start" style="white-space: pre;" direction="ltr" dominant-baseline="text-before-edge">   ...</text><text x="0" y="80" font-family="Virgil, Segoe UI Emoji" font-size="16px" fill="#495057" text-anchor="start" style="white-space: pre;" direction="ltr" dominant-baseline="text-before-edge">}</text></g><g transform="translate(481.66170059967044 193.23917026877012) rotate(0 125.41592407226562 10)"><text x="0" y="0" font-family="Virgil, Segoe UI Emoji" font-size="16px" fill="#495057" text-anchor="start" style="white-space: pre;" direction="ltr" dominant-baseline="text-before-edge">Either[Error, AccountOperation]</text></g><g stroke-linecap="round" transform="translate(10 581.1916290146694) rotate(0 85.5 41.5)"><path d="M20.75 0 M20.75 0 C50.39 0.95, 81.53 1.44, 150.25 0 M20.75 0 C67.22 -1.03, 111.78 0.2, 150.25 0 M150.25 0 C162.28 0.09, 172.16 8.48, 171 20.75 M150.25 0 C163.16 0.83, 172.65 8.4, 171 20.75 M171 20.75 C171.74 27.4, 170.95 39.22, 171 62.25 M171 20.75 C170.51 33.02, 170.56 47.76, 171 62.25 M171 62.25 C171.51 76.17, 163.77 81.76, 150.25 83 M171 62.25 C170.76 77.91, 164.37 84.56, 150.25 83 M150.25 83 C107.7 85.81, 65.38 85.01, 20.75 83 M150.25 83 C110.06 81.5, 69.73 81.68, 20.75 83 M20.75 83 C7.96 84.44, -1.23 75.64, 0 62.25 M20.75 83 C8.21 80.96, -1.41 77.65, 0 62.25 M0 62.25 C-0.33 53.31, -0.58 41.36, 0 20.75 M0 62.25 C-1.19 49.5, -1.23 37.05, 0 20.75 M0 20.75 C1.71 6.4, 5.09 -0.01, 20.75 0 M0 20.75 C1.32 7.02, 6.27 -1.31, 20.75 0" stroke="#c92a2a" stroke-width="1" fill="none"></path></g><g transform="translate(28.31403350830078 587.6916290146694) rotate(0 67.18596649169922 35)"><text x="67.18596649169922" y="0" font-family="Virgil, Segoe UI Emoji" font-size="28px" fill="#000000" text-anchor="middle" style="white-space: pre;" direction="ltr" dominant-baseline="text-before-edge">error </text><text x="67.18596649169922" y="35" font-family="Virgil, Segoe UI Emoji" font-size="28px" fill="#000000" text-anchor="middle" style="white-space: pre;" direction="ltr" dominant-baseline="text-before-edge">processing</text></g><g stroke-linecap="round"><g transform="translate(164.68793430579308 364.30943986150686) rotate(0 -40.09346749499696 107.52769097400926)"><path d="M-0.23 -1.01 C-12.12 3.56, -57.59 -9.22, -70.75 26.8 C-83.91 62.82, -77.66 183.54, -79.19 215.11 M-1.81 1.07 C-13.92 5.38, -58.9 -10.63, -71.82 25.2 C-84.74 61.04, -78.07 184.01, -79.34 216.07" stroke="#c92a2a" stroke-width="1" fill="none"></path></g><g transform="translate(164.68793430579308 364.30943986150686) rotate(0 -40.09346749499696 107.52769097400926)"><path d="M-91.43 187.55 C-84.62 199.65, -83.82 208.2, -78.65 215.76 M-89.22 187.57 C-86.86 199.1, -81.75 208.58, -79 217.04" stroke="#c92a2a" stroke-width="1" fill="none"></path></g><g transform="translate(164.68793430579308 364.30943986150686) rotate(0 -40.09346749499696 107.52769097400926)"><path d="M-70.91 187.44 C-71.21 199.54, -77.52 208.13, -78.65 215.76 M-68.7 187.46 C-73.92 198.95, -76.39 208.48, -79 217.04" stroke="#c92a2a" stroke-width="1" fill="none"></path></g></g><mask></mask><g stroke-linecap="round" transform="translate(160.63226877028512 326.4826595946914) rotate(0 72.43228239939185 38.533022285335534)"><path d="M91.25 9.75 M91.25 9.75 C102.67 16.16, 114.85 22.56, 126.61 29.25 M91.25 9.75 C99.24 13.39, 108.82 17.93, 126.61 29.25 M126.61 29.25 C146.54 39.18, 144.89 40, 126.61 48.75 M126.61 29.25 C146.06 40.91, 145.53 37.48, 126.61 48.75 M126.61 48.75 C112.96 56.45, 104.44 59.64, 91.25 67.32 M126.61 48.75 C113.2 56.94, 100.62 63.05, 91.25 67.32 M91.25 67.32 C74.92 75.91, 71.64 75.69, 54.75 67.32 M91.25 67.32 C73.91 75.13, 74.75 77.63, 54.75 67.32 M54.75 67.32 C47.27 63.63, 37.22 56.65, 18.25 48.75 M54.75 67.32 C41.92 62.12, 29.06 55.37, 18.25 48.75 M18.25 48.75 C0.98 37.91, 1.37 39.42, 18.25 29.25 M18.25 48.75 C0.93 37.67, -1.53 39.99, 18.25 29.25 M18.25 29.25 C29.86 22.46, 39.64 19.1, 54.75 9.75 M18.25 29.25 C26.78 24.26, 36.74 20.61, 54.75 9.75 M54.75 9.75 C73.41 -1.45, 71.65 -1.71, 91.25 9.75 M54.75 9.75 C73.82 1.79, 71.99 -0.89, 91.25 9.75" stroke="#000000" stroke-width="1" fill="none"></path></g><g stroke-linecap="round"><g transform="translate(233.87090978316837 251.0741299517528) rotate(0 0.6895870426824899 37.637160761572716)"><path d="M-0.27 0.04 C-0.36 12.74, 0.54 63.82, 0.62 76.26 M1.78 -0.99 C1.43 11.35, 0.05 61.66, -0.4 74.4" stroke="#000000" stroke-width="1" fill="none"></path></g><g transform="translate(233.87090978316837 251.0741299517528) rotate(0 0.6895870426824899 37.637160761572716)"><path d="M-9.73 45.68 C-5.27 56.13, -4.22 67.33, -1.26 75.84 M-9.47 45.12 C-7.28 54.18, -4.77 64.01, -0.78 73.74" stroke="#000000" stroke-width="1" fill="none"></path></g><g transform="translate(233.87090978316837 251.0741299517528) rotate(0 0.6895870426824899 37.637160761572716)"><path d="M10.78 46.31 C7.19 56.47, 0.18 67.42, -1.26 75.84 M11.04 45.75 C6.76 54.65, 2.79 64.28, -0.78 73.74" stroke="#000000" stroke-width="1" fill="none"></path></g></g><mask></mask><g stroke-linecap="round"><g transform="translate(299.74167625937673 365.8890827806371) rotate(0 54.84278973783057 105.9712015862051)"><path d="M1.11 -0.79 C17.36 3.04, 79.14 -11.58, 97.2 23.82 C115.25 59.22, 107.37 180.12, 109.46 211.63 M0.23 1.41 C16.38 5.28, 78.3 -10.42, 96.45 24.8 C114.59 60.02, 107.38 181.74, 109.12 212.73" stroke="#2b8a3e" stroke-width="1" fill="none"></path></g><g transform="translate(299.74167625937673 365.8890827806371) rotate(0 54.84278973783057 105.9712015862051)"><path d="M97.5 185.19 C100.08 193.58, 103.99 201.81, 110.5 211.44 M98.78 184.57 C100.63 190.71, 102.89 196.97, 108.56 213.26" stroke="#2b8a3e" stroke-width="1" fill="none"></path></g><g transform="translate(299.74167625937673 365.8890827806371) rotate(0 54.84278973783057 105.9712015862051)"><path d="M118.02 185.15 C114.95 193.75, 113.21 201.99, 110.5 211.44 M119.3 184.54 C116.51 190.67, 114.13 196.93, 108.56 213.26" stroke="#2b8a3e" stroke-width="1" fill="none"></path></g></g><mask></mask><g stroke-linecap="round" transform="translate(322.0631979809359 582.1230981470455) rotate(0 89 44)"><path d="M22 0 M22 0 C54.66 0.48, 89.18 -0.15, 156 0 M22 0 C75.32 1.26, 126.02 2.08, 156 0 M156 0 C169.59 0.42, 176.25 8.35, 178 22 M156 0 C171.05 -1.86, 177.2 9.38, 178 22 M178 22 C178.83 40.52, 176.79 58.14, 178 66 M178 22 C178.74 32.01, 177.91 42.46, 178 66 M178 66 C179.32 82.21, 172.05 87.1, 156 88 M178 66 C179.99 79.5, 170.78 85.72, 156 88 M156 88 C124 90.22, 90.67 88.36, 22 88 M156 88 C118.78 87.86, 80.45 87.61, 22 88 M22 88 C5.64 87.42, 1.78 82.5, 0 66 M22 88 C6.39 87.71, -0.1 78.89, 0 66 M0 66 C-1.69 50.39, 0.16 36.69, 0 22 M0 66 C0.36 54.6, 0.97 43.46, 0 22 M0 22 C0.29 8.8, 7.96 1.76, 22 0 M0 22 C-0.76 5.77, 6.85 0.91, 22 0" stroke="#2b8a3e" stroke-width="1" fill="none"></path></g><g transform="translate(355.93122471433435 591.1230981470455) rotate(0 55.13197326660156 35)"><text x="55.13197326660156" y="0" font-family="Virgil, Segoe UI Emoji" font-size="28px" fill="#000000" text-anchor="middle" style="white-space: pre;" direction="ltr" dominant-baseline="text-before-edge">business</text><text x="55.13197326660156" y="35" font-family="Virgil, Segoe UI Emoji" font-size="28px" fill="#000000" text-anchor="middle" style="white-space: pre;" direction="ltr" dominant-baseline="text-before-edge">logic</text></g><g transform="translate(550.2566045908651 610.35246124386) rotate(0 4.000000000000057 10)"><text x="0" y="0" font-family="Virgil, Segoe UI Emoji" font-size="16px" fill="#495057" text-anchor="start" style="white-space: pre;" direction="ltr" dominant-baseline="text-before-edge"></text></g><g stroke-linecap="round"><g transform="translate(544.641278663131 622.16105499386) rotate(0 -15.60177126117054 0.5267957884818202)"><path d="M-0.43 -0.65 C-5.42 -0.19, -25.73 1.56, -30.77 1.7" stroke="#343a40" stroke-width="1.5" fill="none" stroke-dasharray="1.5 7"></path></g><g transform="translate(544.641278663131 622.16105499386) rotate(0 -15.60177126117054 0.5267957884818202)"><path d="M-17.46 -4.36 C-18.8 -2.92, -23.93 -1.38, -32.22 2.9" stroke="#343a40" stroke-width="1.5" fill="none" stroke-dasharray="1.5 5"></path></g><g transform="translate(544.641278663131 622.16105499386) rotate(0 -15.60177126117054 0.5267957884818202)"><path d="M-16.81 6.17 C-18.21 5.21, -23.49 4.34, -32.22 2.9" stroke="#343a40" stroke-width="1.5" fill="none" stroke-dasharray="1.5 5"></path></g></g><mask></mask><g transform="translate(561.0123724131308 621.38371124386) rotate(0 7 17.5)"><text x="0" y="0" font-family="Virgil, Segoe UI Emoji" font-size="28px" fill="#000000" text-anchor="start" style="white-space: pre;" direction="ltr" dominant-baseline="text-before-edge"></text></g><g transform="translate(551.0534795908652 610.75089874386) rotate(0 94.33594512939453 10)"><text x="0" y="0" font-family="Virgil, Segoe UI Emoji" font-size="16px" fill="#495057" text-anchor="start" style="white-space: pre;" direction="ltr" dominant-baseline="text-before-edge">state update operation</text></g></svg>