<svg version="1.1" xmlns="http://www.w3.org/2000/svg" viewBox="0 0 1290.828760177512 468.02049839250583" width="2581.657520355024" height="936.0409967850117">
  <!-- svg-source:excalidraw -->
  
  <defs>
    <style class="style-fonts">
      @font-face {
        font-family: "Virgil";
        src: url("https://excalidraw.com/Virgil.woff2");
      }
      @font-face {
        font-family: "Cascadia";
        src: url("https://excalidraw.com/Cascadia.woff2");
      }
    </style>
  </defs>
  <g stroke-linecap="round" transform="translate(10 179.47898712408676) rotate(0 110.75565323093429 40.9602991767147)"><path d="M20.48 0 M20.48 0 C73.67 -1.92, 124.94 -0.86, 201.03 0 M20.48 0 C85.21 -2.18, 147.97 -2.47, 201.03 0 M201.03 0 C215.34 -0.57, 221.32 7.01, 221.51 20.48 M201.03 0 C214.83 -1.3, 223.81 5.67, 221.51 20.48 M221.51 20.48 C221.22 28.44, 222.53 35.1, 221.51 61.44 M221.51 20.48 C222.24 31.06, 222.36 44.1, 221.51 61.44 M221.51 61.44 C222.76 73.87, 214.99 81.09, 201.03 81.92 M221.51 61.44 C221.07 72.88, 214.18 81.45, 201.03 81.92 M201.03 81.92 C135.59 80.92, 74.72 81.89, 20.48 81.92 M201.03 81.92 C148.1 80.93, 96.63 80.58, 20.48 81.92 M20.48 81.92 C7.09 82.36, 0.24 76.56, 0 61.44 M20.48 81.92 C5.27 81.97, 1.47 73.28, 0 61.44 M0 61.44 C-1.53 46.45, -0.46 33.12, 0 20.48 M0 61.44 C-0.32 46.89, -0.34 31.14, 0 20.48 M0 20.48 C-0.53 6.85, 7.16 1.58, 20.48 0 M0 20.48 C-1.51 8.39, 8.2 -0.75, 20.48 0" stroke="#343a40" stroke-width="1" fill="none"></path></g><g transform="translate(30.105697481422567 185.43928630080148) rotate(0 90.64995574951172 35)"><text x="90.64995574951172" y="0" font-family="Virgil, Segoe UI Emoji" font-size="28px" fill="#343a40" text-anchor="middle" style="white-space: pre;" direction="ltr" dominant-baseline="text-before-edge">intermediate </text><text x="90.64995574951172" y="35" font-family="Virgil, Segoe UI Emoji" font-size="28px" fill="#343a40" text-anchor="middle" style="white-space: pre;" direction="ltr" dominant-baseline="text-before-edge">stream</text></g><g stroke-linecap="round" transform="translate(558.7603976897822 18.808342269936773) rotate(0 34.23903458656241 71.28378224663751)"><path d="M40.5 1.1 C45.98 2.01, 51.15 8.63, 55.44 16.33 C59.72 24.04, 63.98 36.03, 66.2 47.31 C68.42 58.59, 69.82 72.3, 68.74 84.01 C67.66 95.72, 63.56 108.5, 59.72 117.57 C55.87 126.65, 50.86 134.5, 45.65 138.44 C40.43 142.38, 33.82 143.35, 28.42 141.21 C23.02 139.08, 17.75 133.28, 13.26 125.64 C8.78 117.99, 3.65 106.25, 1.53 95.34 C-0.59 84.44, -0.35 71.65, 0.56 60.19 C1.47 48.74, 3.47 35.91, 6.98 26.6 C10.49 17.3, 15.57 8.43, 21.63 4.35 C27.68 0.27, 39.11 1.92, 43.31 2.13 C47.5 2.35, 46.97 4.36, 46.8 5.63 M26.59 3.24 C31.47 -0.51, 37.17 -1.36, 42.81 1.62 C48.45 4.6, 56.11 12, 60.44 21.1 C64.76 30.2, 67.91 44.42, 68.77 56.22 C69.63 68.02, 67.56 80.63, 65.59 91.9 C63.62 103.18, 60.74 115.56, 56.96 123.89 C53.17 132.22, 48.23 139.05, 42.88 141.88 C37.52 144.72, 30.58 144.38, 24.81 140.89 C19.05 137.41, 12.29 129.93, 8.29 120.99 C4.29 112.06, 1.78 99.11, 0.82 87.29 C-0.15 75.48, 0.85 61.38, 2.49 50.09 C4.12 38.8, 6.62 27.63, 10.62 19.57 C14.62 11.51, 23.99 4.6, 26.49 1.71 C28.99 -1.18, 25.47 0.96, 25.64 2.23" stroke="#343a40" stroke-width="4" fill="none"></path></g><g stroke-linecap="round"><g transform="translate(594.8931476339051 18.088955401263505) rotate(0 98.59165355190225 -1.2628053534496146)"><path d="M-0.86 -0.38 C32.12 -0.55, 165.19 -1.98, 198.04 -2.14 M0.89 -1.63 C33.78 -1.6, 164.58 -1.45, 197.54 -1.22" stroke="#343a40" stroke-width="4" fill="none"></path></g></g><mask></mask><g stroke-linecap="round"><g transform="translate(597.0920798763623 161.39814091027296) rotate(0 99.19657644433357 -1.003399366664496)"><path d="M-0.33 0.88 C32.31 0.45, 163.54 -2.59, 196.39 -2.89 M1.69 0.3 C34.68 -0.01, 166.36 -1.43, 198.73 -1.96" stroke="#343a40" stroke-width="4" fill="none"></path></g></g><mask></mask><g transform="translate(453.06204228334286 458.02039839250585) rotate(0 0.00004999999998744897 0.00004999999998744897)" stroke="none"><path fill="#343a40" d="M 1.57,-1.57 Q 1.57,-1.57 1.77,-1.27 1.98,-0.98 2.09,-0.64 2.20,-0.29 2.19,0.05 2.18,0.41 2.05,0.75 1.93,1.09 1.70,1.37 1.48,1.65 1.18,1.84 0.87,2.04 0.52,2.12 0.18,2.21 -0.17,2.18 -0.53,2.15 -0.86,2.01 -1.19,1.87 -1.46,1.63 -1.73,1.39 -1.90,1.07 -2.08,0.76 -2.15,0.41 -2.21,0.05 -2.17,-0.29 -2.12,-0.65 -1.96,-0.97 -1.80,-1.29 -1.54,-1.54 -1.29,-1.80 -0.97,-1.96 -0.65,-2.12 -0.29,-2.17 0.06,-2.21 0.41,-2.15 0.76,-2.08 1.07,-1.90 1.39,-1.73 1.63,-1.46 1.87,-1.19 2.01,-0.86 2.15,-0.53 2.18,-0.17 2.21,0.18 2.12,0.52 2.03,0.87 1.84,1.18 1.65,1.48 1.37,1.70 1.09,1.93 0.75,2.05 0.41,2.18 0.05,2.19 -0.30,2.20 -0.64,2.09 -0.98,1.98 -1.27,1.77 -1.57,1.56 -1.57,1.57 -1.57,1.57 -1.73,1.35 -1.90,1.14 -2.01,0.90 -2.12,0.66 -2.16,0.39 -2.21,0.13 -2.20,-0.13 -2.18,-0.40 -2.10,-0.65 -2.02,-0.91 -1.88,-1.14 -1.74,-1.36 -1.55,-1.55 -1.36,-1.74 -1.14,-1.88 -0.91,-2.02 -0.65,-2.10 -0.40,-2.18 -0.13,-2.20 0.13,-2.21 0.39,-2.16 0.66,-2.12 0.90,-2.01 1.14,-1.90 1.35,-1.73 1.57,-1.57 1.57,-1.57 L 1.57,-1.57 Z"></path></g><g stroke-opacity="0.8" fill-opacity="0.8" transform="translate(793.9574938039448 16.492975788965566) rotate(0 19.446284314759623 70.96522569766074)" stroke="none"><path fill="#000000" d="M 0.31,-2.57 Q 0.31,-2.57 1.22,-2.50 2.14,-2.43 3.91,-1.79 5.68,-1.16 6.88,-0.36 8.07,0.43 8.97,1.28 9.87,2.12 11.20,3.43 12.54,4.74 13.54,5.91 14.54,7.08 15.57,8.20 16.60,9.32 18.31,11.06 20.03,12.80 20.89,13.66 21.76,14.51 22.70,15.44 23.65,16.37 24.45,17.09 25.25,17.82 26.63,19.17 28.01,20.53 29.14,21.69 30.28,22.85 31.48,24.23 32.68,25.62 33.77,27.19 34.86,28.77 35.80,30.49 36.73,32.21 37.16,33.24 37.60,34.28 38.00,35.50 38.40,36.72 38.73,38.01 39.06,39.30 39.35,40.63 39.64,41.95 39.91,43.39 40.18,44.82 40.42,46.38 40.66,47.93 40.85,49.56 41.04,51.19 41.18,52.87 41.33,54.55 41.43,56.25 41.54,57.94 41.59,59.63 41.65,61.31 41.66,63.01 41.67,64.70 41.65,66.46 41.62,68.22 41.58,70.04 41.54,71.86 41.45,73.74 41.35,75.62 41.14,77.53 40.94,79.44 40.29,82.29 39.65,85.14 39.06,87.24 38.47,89.33 37.97,91.08 37.46,92.82 37.05,94.29 36.63,95.76 36.26,97.02 35.89,98.29 35.54,99.46 35.18,100.63 34.86,101.73 34.54,102.83 33.98,104.47 33.42,106.10 33.03,107.44 32.64,108.77 31.83,110.67 31.01,112.57 30.46,114.02 29.90,115.46 29.23,117.00 28.55,118.53 28.01,119.71 27.47,120.89 26.93,121.93 26.39,122.97 25.47,124.54 24.56,126.12 23.49,127.68 22.43,129.24 21.52,130.41 20.61,131.57 19.80,132.59 19.00,133.61 18.24,134.52 17.49,135.43 16.22,136.80 14.95,138.18 13.35,139.48 11.76,140.79 10.52,141.68 9.28,142.57 8.25,143.22 7.22,143.87 6.06,144.45 4.91,145.03 3.73,145.14 2.55,145.25 1.02,145.25 -0.49,145.26 -1.03,145.17 -1.56,145.09 -2.04,144.83 -2.51,144.58 -2.88,144.19 -3.25,143.80 -3.48,143.31 -3.71,142.82 -3.77,142.28 -3.82,141.74 -3.71,141.22 -3.59,140.69 -3.31,140.23 -3.04,139.77 -2.62,139.42 -2.21,139.07 -1.71,138.87 -1.21,138.67 -0.67,138.64 -0.13,138.61 0.38,138.75 0.90,138.90 1.34,139.20 1.79,139.50 2.12,139.93 2.44,140.36 2.62,140.87 2.79,141.39 2.79,141.93 2.79,142.47 2.62,142.98 2.44,143.49 2.12,143.92 1.79,144.35 1.34,144.65 0.90,144.95 0.38,145.10 -0.13,145.24 -0.67,145.21 -1.21,145.18 -1.71,144.98 -2.21,144.78 -2.62,144.43 -3.04,144.08 -3.31,143.62 -3.59,143.16 -3.71,142.63 -3.82,142.11 -3.77,141.57 -3.71,141.03 -3.48,140.54 -3.25,140.05 -2.88,139.66 -2.51,139.27 -2.03,139.02 -1.56,138.76 -1.03,138.68 -0.49,138.59 -0.49,138.59 -0.49,138.59 1.68,138.57 3.87,138.54 4.98,138.02 6.08,137.49 7.20,136.81 8.31,136.13 9.71,135.08 11.10,134.03 12.25,132.96 13.39,131.90 14.11,131.09 14.83,130.29 15.60,129.33 16.38,128.38 17.83,126.46 19.28,124.54 20.27,123.30 21.26,122.06 22.37,120.46 23.48,118.86 24.07,117.83 24.65,116.81 25.31,115.34 25.96,113.88 26.55,112.49 27.13,111.10 27.74,109.25 28.34,107.40 28.79,106.08 29.25,104.76 29.76,103.06 30.27,101.36 30.71,100.26 31.15,99.16 31.62,98.06 32.10,96.96 32.59,95.77 33.08,94.58 33.61,93.20 34.13,91.81 34.66,90.16 35.19,88.51 35.63,86.48 36.07,84.45 36.50,81.76 36.93,79.07 37.06,77.28 37.19,75.50 37.20,73.69 37.21,71.88 37.16,70.07 37.10,68.26 37.05,66.53 36.99,64.80 36.93,63.19 36.87,61.57 36.75,59.98 36.63,58.38 36.44,56.76 36.25,55.14 36.01,53.56 35.77,51.97 35.50,50.47 35.22,48.96 34.89,47.50 34.56,46.03 34.23,44.68 33.90,43.33 33.58,42.11 33.26,40.89 32.93,39.79 32.61,38.69 31.88,36.81 31.15,34.93 30.42,33.49 29.68,32.05 28.87,30.77 28.07,29.49 26.93,28.09 25.79,26.70 24.82,25.57 23.86,24.44 22.67,23.13 21.49,21.83 20.69,21.05 19.88,20.28 18.88,19.33 17.89,18.38 17.03,17.52 16.17,16.66 14.43,14.94 12.69,13.22 11.49,12.11 10.30,11.00 9.25,9.95 8.19,8.90 6.99,7.64 5.79,6.38 4.67,5.34 3.56,4.30 2.52,3.59 1.48,2.87 0.58,2.72 -0.31,2.57 -0.61,2.50 -0.92,2.42 -1.19,2.28 -1.47,2.13 -1.71,1.92 -1.94,1.72 -2.12,1.46 -2.30,1.20 -2.41,0.91 -2.52,0.61 -2.55,0.30 -2.59,-0.00 -2.55,-0.31 -2.52,-0.62 -2.40,-0.91 -2.29,-1.20 -2.12,-1.46 -1.94,-1.72 -1.70,-1.93 -1.47,-2.13 -1.19,-2.28 -0.91,-2.42 -0.61,-2.50 -0.31,-2.57 0.00,-2.57 0.31,-2.57 0.31,-2.57 L 0.31,-2.57 Z"></path></g><g stroke-linecap="round" transform="translate(560.3576933810805 257.2415356465519) rotate(0 34.23903458656241 71.28378224663751)"><path d="M30.11 -0.05 C35.4 -2.45, 42.89 0.38, 48.22 5.27 C53.56 10.16, 58.77 19.85, 62.11 29.29 C65.44 38.73, 67.47 50.24, 68.23 61.89 C68.98 73.53, 69.03 88, 66.64 99.16 C64.25 110.33, 58.6 121.88, 53.89 128.89 C49.18 135.9, 44.03 139.74, 38.37 141.21 C32.71 142.68, 25.29 142.16, 19.94 137.71 C14.59 133.25, 9.58 123.97, 6.25 114.47 C2.92 104.97, 0.46 92.59, -0.06 80.72 C-0.58 68.84, 0.89 54.2, 3.12 43.22 C5.35 32.25, 8.4 22.15, 13.34 14.87 C18.27 7.6, 28.74 1.77, 32.72 -0.43 C36.7 -2.62, 37.12 0.49, 37.2 1.72 M28.01 2.28 C33.18 -1.17, 39.97 -1.07, 45.2 2.79 C50.44 6.66, 55.78 16.28, 59.42 25.45 C63.06 34.62, 65.96 46.65, 67.04 57.8 C68.12 68.96, 67.5 81.14, 65.92 92.38 C64.34 103.63, 61.71 117.09, 57.56 125.27 C53.41 133.44, 46.82 138.94, 41.05 141.42 C35.28 143.89, 28.09 143.88, 22.92 140.11 C17.76 136.34, 13.72 128.12, 10.07 118.81 C6.41 109.5, 2.2 95.94, 0.99 84.23 C-0.21 72.53, 1.11 59.72, 2.83 48.57 C4.54 37.42, 6.96 25.02, 11.29 17.33 C15.61 9.63, 25.98 4.74, 28.8 2.39 C31.61 0.03, 28.35 1.97, 28.19 3.2" stroke="#343a40" stroke-width="4" fill="none"></path></g><g stroke-linecap="round"><g transform="translate(596.4904433252032 256.5221487778786) rotate(0 98.65405811730363 -0.7820858005899538)"><path d="M0.45 -0.29 C33.32 -0.4, 165.29 -1.16, 198.08 -1.39 M-0.77 -1.49 C31.94 -1.37, 164.73 -0.2, 197.6 -0.07" stroke="#343a40" stroke-width="4" fill="none"></path></g></g><mask></mask><g stroke-linecap="round"><g transform="translate(598.6893755676606 399.8313342868881) rotate(0 98.20767166459382 -0.4108456236894824)"><path d="M-0.29 0.89 C32.61 0.53, 163.92 -1.39, 196.71 -1.72 M1.76 0.32 C34.53 0.12, 163.28 0.39, 195.54 -0.17" stroke="#343a40" stroke-width="4" fill="none"></path></g></g><mask></mask><g stroke-opacity="0.8" fill-opacity="0.8" transform="translate(795.554789495244 254.9261691655807) rotate(0 19.446284314759623 70.96522569766074)" stroke="none"><path fill="#000000" d="M 0.31,-2.57 Q 0.31,-2.57 1.22,-2.50 2.14,-2.43 3.91,-1.79 5.68,-1.16 6.88,-0.36 8.07,0.43 8.97,1.28 9.87,2.12 11.20,3.43 12.54,4.74 13.54,5.91 14.54,7.08 15.57,8.20 16.60,9.32 18.31,11.06 20.03,12.80 20.89,13.66 21.76,14.51 22.70,15.44 23.65,16.37 24.45,17.09 25.25,17.82 26.63,19.17 28.01,20.53 29.14,21.69 30.28,22.85 31.48,24.23 32.68,25.62 33.77,27.19 34.86,28.77 35.80,30.49 36.73,32.21 37.16,33.24 37.60,34.28 38.00,35.50 38.40,36.72 38.73,38.01 39.06,39.30 39.35,40.63 39.64,41.95 39.91,43.39 40.18,44.82 40.42,46.38 40.66,47.93 40.85,49.56 41.04,51.19 41.18,52.87 41.33,54.55 41.43,56.25 41.54,57.94 41.59,59.63 41.65,61.31 41.66,63.01 41.67,64.70 41.65,66.46 41.62,68.22 41.58,70.04 41.54,71.86 41.45,73.74 41.35,75.62 41.14,77.53 40.94,79.44 40.29,82.29 39.65,85.14 39.06,87.24 38.47,89.33 37.97,91.08 37.46,92.82 37.05,94.29 36.63,95.76 36.26,97.02 35.89,98.29 35.54,99.46 35.18,100.63 34.86,101.73 34.54,102.83 33.98,104.47 33.42,106.10 33.03,107.44 32.64,108.77 31.83,110.67 31.01,112.57 30.46,114.02 29.90,115.46 29.23,117.00 28.55,118.53 28.01,119.71 27.47,120.89 26.93,121.93 26.39,122.97 25.47,124.54 24.56,126.12 23.49,127.68 22.43,129.24 21.52,130.41 20.61,131.57 19.80,132.59 19.00,133.61 18.24,134.52 17.49,135.43 16.22,136.80 14.95,138.18 13.35,139.48 11.76,140.79 10.52,141.68 9.28,142.57 8.25,143.22 7.22,143.87 6.06,144.45 4.91,145.03 2.24,145.13 -0.41,145.23 -0.94,145.15 -1.47,145.06 -1.94,144.81 -2.41,144.56 -2.78,144.17 -3.15,143.78 -3.38,143.30 -3.60,142.81 -3.66,142.28 -3.72,141.75 -3.60,141.22 -3.49,140.70 -3.21,140.24 -2.93,139.78 -2.53,139.44 -2.12,139.09 -1.62,138.89 -1.12,138.69 -0.59,138.66 -0.05,138.64 0.45,138.78 0.97,138.92 1.41,139.22 1.85,139.52 2.18,139.95 2.50,140.38 2.67,140.88 2.84,141.39 2.84,141.93 2.84,142.46 2.67,142.97 2.50,143.48 2.18,143.90 1.85,144.33 1.41,144.63 0.97,144.93 0.45,145.07 -0.05,145.22 -0.59,145.19 -1.12,145.16 -1.62,144.96 -2.12,144.76 -2.53,144.41 -2.93,144.07 -3.21,143.61 -3.49,143.15 -3.60,142.63 -3.72,142.10 -3.66,141.57 -3.60,141.04 -3.38,140.55 -3.15,140.07 -2.78,139.68 -2.41,139.29 -1.94,139.04 -1.47,138.79 -0.94,138.70 -0.41,138.62 -0.41,138.62 -0.41,138.62 1.72,138.58 3.87,138.54 4.98,138.02 6.08,137.49 7.20,136.81 8.31,136.13 9.71,135.08 11.10,134.03 12.25,132.96 13.39,131.90 14.11,131.09 14.83,130.29 15.60,129.33 16.38,128.38 17.83,126.46 19.28,124.54 20.27,123.30 21.26,122.06 22.37,120.46 23.48,118.86 24.07,117.83 24.65,116.81 25.31,115.34 25.96,113.88 26.55,112.49 27.13,111.10 27.74,109.25 28.34,107.40 28.79,106.08 29.25,104.76 29.76,103.06 30.27,101.36 30.71,100.26 31.15,99.16 31.62,98.06 32.10,96.96 32.59,95.77 33.08,94.58 33.61,93.20 34.13,91.81 34.66,90.16 35.19,88.51 35.63,86.48 36.07,84.45 36.50,81.76 36.93,79.07 37.06,77.28 37.19,75.50 37.20,73.69 37.21,71.88 37.16,70.07 37.10,68.26 37.05,66.53 36.99,64.80 36.93,63.19 36.87,61.57 36.75,59.98 36.63,58.38 36.44,56.76 36.25,55.14 36.01,53.56 35.77,51.97 35.50,50.47 35.22,48.96 34.89,47.50 34.56,46.03 34.23,44.68 33.90,43.33 33.58,42.11 33.26,40.89 32.93,39.79 32.61,38.69 31.88,36.81 31.15,34.93 30.42,33.49 29.68,32.05 28.87,30.77 28.07,29.49 26.93,28.09 25.79,26.70 24.82,25.57 23.86,24.44 22.67,23.13 21.49,21.83 20.69,21.05 19.88,20.28 18.88,19.33 17.89,18.38 17.03,17.52 16.17,16.66 14.43,14.94 12.69,13.22 11.49,12.11 10.30,11.00 9.25,9.95 8.19,8.90 6.99,7.64 5.79,6.38 4.67,5.34 3.56,4.30 2.52,3.59 1.48,2.87 0.58,2.72 -0.31,2.57 -0.61,2.50 -0.92,2.42 -1.19,2.28 -1.47,2.13 -1.71,1.92 -1.94,1.72 -2.12,1.46 -2.30,1.20 -2.41,0.91 -2.52,0.61 -2.55,0.30 -2.59,-0.00 -2.55,-0.31 -2.52,-0.62 -2.40,-0.91 -2.29,-1.20 -2.12,-1.46 -1.94,-1.72 -1.70,-1.93 -1.47,-2.13 -1.19,-2.28 -0.91,-2.42 -0.61,-2.50 -0.31,-2.57 0.00,-2.57 0.31,-2.57 0.31,-2.57 L 0.31,-2.57 Z"></path></g><g mask="url(#mask-2OYZTakB0FR9k7s7gO8qC)" stroke-linecap="round"><g transform="translate(209.36904460814026 176.8210757234648) rotate(0 193.94199571526963 -42.41240320852995)"><path d="M-0.31 1 C21.6 -10.86, 66.49 -56.64, 131.24 -71.11 C196 -85.58, 345.48 -83.36, 388.19 -85.83 M1.73 0.49 C24.02 -11.26, 69.19 -55.82, 133.45 -70.02 C197.71 -84.21, 344.99 -82.17, 387.29 -84.67" stroke="#343a40" stroke-width="1" fill="none"></path></g><g transform="translate(209.36904460814026 176.8210757234648) rotate(0 193.94199571526963 -42.41240320852995)"><path d="M361.05 -75.28 C365.86 -77.15, 374.67 -81.37, 386.66 -83.77 M358.41 -74.53 C365.18 -75.73, 372.86 -77.59, 387.78 -85.12" stroke="#343a40" stroke-width="1" fill="none"></path></g><g transform="translate(209.36904460814026 176.8210757234648) rotate(0 193.94199571526963 -42.41240320852995)"><path d="M360.52 -95.8 C365.5 -91.86, 374.45 -90.28, 386.66 -83.77 M357.88 -95.05 C364.69 -91.61, 372.49 -88.84, 387.78 -85.12" stroke="#343a40" stroke-width="1" fill="none"></path></g></g><mask id="mask-2OYZTakB0FR9k7s7gO8qC"><rect x="0" y="0" fill="#fff" width="697.823450846327" height="362.35270218966156"></rect><rect x="199.41774043986493" y="89.04934442163062" fill="#000" width="284.31182861328125" height="35" opacity="1"></rect></mask><g transform="translate(199.41774043986493 89.04934442163062) rotate(0 203.89329988354496 45.359328093304214)"><text x="142.15591430664062" y="0" font-family="Virgil, Segoe UI Emoji" font-size="28px" fill="#000000" text-anchor="middle" style="white-space: pre;" direction="ltr" dominant-baseline="text-before-edge">Either[Error, Entity]</text></g><g mask="url(#mask-uhEiBI2g4IOZV6wq75pN5)" stroke-linecap="round"><g transform="translate(222.3729908935818 264.4842060000346) rotate(0 187.69812603686182 34.13580375741921)"><path d="M0.46 -0.54 C15.12 8.75, 25.71 43.43, 88.33 54.82 C150.94 66.21, 328.15 65.42, 376.15 67.8 M-0.75 1.78 C13.75 11.38, 24.93 45.26, 87.57 56.43 C150.21 67.6, 326.95 67.06, 375.1 68.82" stroke="#343a40" stroke-width="1" fill="none"></path></g><g transform="translate(222.3729908935818 264.4842060000346) rotate(0 187.69812603686182 34.13580375741921)"><path d="M345.81 79.14 C356.42 74.31, 364.6 71.44, 376.35 68.72 M347.4 77.91 C357.59 75.39, 368.16 71.84, 374.22 68.64" stroke="#343a40" stroke-width="1" fill="none"></path></g><g transform="translate(222.3729908935818 264.4842060000346) rotate(0 187.69812603686182 34.13580375741921)"><path d="M346.2 58.62 C356.52 60.57, 364.57 64.49, 376.35 68.72 M347.79 57.39 C357.7 62.39, 368.14 66.36, 374.22 68.64" stroke="#343a40" stroke-width="1" fill="none"></path></g></g><mask id="mask-uhEiBI2g4IOZV6wq75pN5"><rect x="0" y="0" fill="#fff" width="699.0722562012204" height="432.86156350007616"></rect><rect x="168.19338763050678" y="301.6542371553115" fill="#000" width="284.31182861328125" height="35" opacity="1"></rect></mask><g transform="translate(168.19338763050678 301.6542371553114) rotate(0 241.87772929993685 -3.03422739785762)"><text x="142.15591430664062" y="0" font-family="Virgil, Segoe UI Emoji" font-size="28px" fill="#000000" text-anchor="middle" style="white-space: pre;" direction="ltr" dominant-baseline="text-before-edge">Either[Error, Entity]</text></g><g stroke-linecap="round" transform="translate(1004.396594723072 12.315366480971193) rotate(0 34.23903458656241 71.28378224663751)"><path d="M41.63 1.34 C47.12 2.51, 53.48 9.49, 57.77 17.29 C62.05 25.08, 65.56 36.76, 67.34 48.09 C69.11 59.42, 69.78 73.56, 68.43 85.27 C67.07 96.99, 63.03 109.32, 59.22 118.38 C55.41 127.43, 50.95 135.8, 45.54 139.62 C40.13 143.44, 32.32 143.69, 26.77 141.3 C21.22 138.91, 16.29 133.13, 12.22 125.28 C8.16 117.43, 4.22 105.7, 2.38 94.2 C0.54 82.7, 0.27 67.96, 1.19 56.3 C2.1 44.64, 4.01 32.87, 7.85 24.25 C11.69 15.62, 17.43 7.49, 24.22 4.55 C31 1.61, 43.77 5.12, 48.57 6.62 C53.37 8.12, 53.25 12.45, 53.03 13.54 M28.08 0.94 C33.35 -2.09, 41.08 0.93, 46.62 4.88 C52.16 8.82, 57.83 15.7, 61.32 24.59 C64.81 33.49, 66.82 46.39, 67.55 58.26 C68.27 70.13, 67.65 84.68, 65.69 95.81 C63.73 106.93, 59.75 117.25, 55.81 125.01 C51.86 132.77, 47.51 140.2, 42.04 142.35 C36.56 144.5, 28.8 142.17, 22.96 137.89 C17.12 133.6, 10.96 125.61, 7 116.64 C3.03 107.66, 0.06 95.7, -0.84 84.05 C-1.75 72.41, -0.73 57.96, 1.57 46.76 C3.87 35.57, 8.68 24.24, 12.97 16.87 C17.26 9.49, 24.63 4.98, 27.31 2.51 C29.98 0.04, 28.95 1.25, 29.01 2.05" stroke="#343a40" stroke-width="4" fill="none"></path></g><g stroke-linecap="round"><g transform="translate(1040.5293446671951 11.595979612297924) rotate(0 98.77430067170008 -0.37764047269704903)"><path d="M0.89 0.48 C33.95 0.15, 164.82 -0.97, 197.64 -1.24 M-0.1 -0.31 C32.9 -0.53, 164.02 0.09, 196.94 0.16" stroke="#343a40" stroke-width="4" fill="none"></path></g></g><mask></mask><g stroke-linecap="round"><g transform="translate(1042.728276909652 154.9051651213074) rotate(0 98.07003498113181 -1.1966371539726595)"><path d="M0.48 0.46 C33.16 0.13, 164.11 -0.87, 196.86 -1.07 M-0.72 -0.35 C31.71 -1.1, 162.96 -2.48, 195.78 -2.85" stroke="#343a40" stroke-width="4" fill="none"></path></g></g><mask></mask><g stroke-opacity="0.8" fill-opacity="0.8" transform="translate(1239.5936908372344 10) rotate(0 19.446284314759623 70.96522569766074)" stroke="none"><path fill="#000000" d="M 0.31,-2.57 Q 0.31,-2.57 1.22,-2.50 2.14,-2.43 3.91,-1.79 5.68,-1.16 6.88,-0.36 8.07,0.43 8.97,1.28 9.87,2.12 11.20,3.43 12.54,4.74 13.54,5.91 14.54,7.08 15.57,8.20 16.60,9.32 18.31,11.06 20.03,12.80 20.89,13.66 21.76,14.51 22.70,15.44 23.65,16.37 24.45,17.09 25.25,17.82 26.63,19.17 28.01,20.53 29.14,21.69 30.28,22.85 31.48,24.23 32.68,25.62 33.77,27.19 34.86,28.77 35.80,30.49 36.73,32.21 37.16,33.24 37.60,34.28 38.00,35.50 38.40,36.72 38.73,38.01 39.06,39.30 39.35,40.63 39.64,41.95 39.91,43.39 40.18,44.82 40.42,46.38 40.66,47.93 40.85,49.56 41.04,51.19 41.18,52.87 41.33,54.55 41.43,56.25 41.54,57.94 41.59,59.63 41.65,61.31 41.66,63.01 41.67,64.70 41.65,66.46 41.62,68.22 41.58,70.04 41.54,71.86 41.45,73.74 41.35,75.62 41.14,77.53 40.94,79.44 40.29,82.29 39.65,85.14 39.06,87.24 38.47,89.33 37.97,91.08 37.46,92.82 37.05,94.29 36.63,95.76 36.26,97.02 35.89,98.29 35.54,99.46 35.18,100.63 34.86,101.73 34.54,102.83 33.98,104.47 33.42,106.10 33.03,107.44 32.64,108.77 31.83,110.67 31.01,112.57 30.46,114.02 29.90,115.46 29.23,117.00 28.55,118.53 28.01,119.71 27.47,120.89 26.93,121.93 26.39,122.97 25.47,124.54 24.56,126.12 23.49,127.68 22.43,129.24 21.52,130.41 20.61,131.57 19.80,132.59 19.00,133.61 18.24,134.52 17.49,135.43 16.22,136.80 14.95,138.18 13.35,139.48 11.76,140.79 10.52,141.68 9.28,142.57 8.25,143.22 7.22,143.87 6.06,144.45 4.91,145.03 2.24,145.13 -0.41,145.23 -0.94,145.15 -1.47,145.06 -1.94,144.81 -2.41,144.56 -2.78,144.17 -3.15,143.78 -3.38,143.30 -3.60,142.81 -3.66,142.28 -3.72,141.75 -3.60,141.22 -3.49,140.70 -3.21,140.24 -2.93,139.78 -2.53,139.44 -2.12,139.09 -1.62,138.89 -1.12,138.69 -0.59,138.66 -0.05,138.64 0.45,138.78 0.97,138.92 1.41,139.22 1.85,139.52 2.18,139.95 2.50,140.38 2.67,140.88 2.84,141.39 2.84,141.93 2.84,142.46 2.67,142.97 2.50,143.48 2.18,143.90 1.85,144.33 1.41,144.63 0.97,144.93 0.45,145.07 -0.05,145.22 -0.59,145.19 -1.12,145.16 -1.62,144.96 -2.12,144.76 -2.53,144.41 -2.93,144.07 -3.21,143.61 -3.49,143.15 -3.60,142.63 -3.72,142.10 -3.66,141.57 -3.60,141.04 -3.38,140.55 -3.15,140.07 -2.78,139.68 -2.41,139.29 -1.94,139.04 -1.47,138.79 -0.94,138.70 -0.41,138.62 -0.41,138.62 -0.41,138.62 1.72,138.58 3.87,138.54 4.98,138.02 6.08,137.49 7.20,136.81 8.31,136.13 9.71,135.08 11.10,134.03 12.25,132.96 13.39,131.90 14.11,131.09 14.83,130.29 15.60,129.33 16.38,128.38 17.83,126.46 19.28,124.54 20.27,123.30 21.26,122.06 22.37,120.46 23.48,118.86 24.07,117.83 24.65,116.81 25.31,115.34 25.96,113.88 26.55,112.49 27.13,111.10 27.74,109.25 28.34,107.40 28.79,106.08 29.25,104.76 29.76,103.06 30.27,101.36 30.71,100.26 31.15,99.16 31.62,98.06 32.10,96.96 32.59,95.77 33.08,94.58 33.61,93.20 34.13,91.81 34.66,90.16 35.19,88.51 35.63,86.48 36.07,84.45 36.50,81.76 36.93,79.07 37.06,77.28 37.19,75.50 37.20,73.69 37.21,71.88 37.16,70.07 37.10,68.26 37.05,66.53 36.99,64.80 36.93,63.19 36.87,61.57 36.75,59.98 36.63,58.38 36.44,56.76 36.25,55.14 36.01,53.56 35.77,51.97 35.50,50.47 35.22,48.96 34.89,47.50 34.56,46.03 34.23,44.68 33.90,43.33 33.58,42.11 33.26,40.89 32.93,39.79 32.61,38.69 31.88,36.81 31.15,34.93 30.42,33.49 29.68,32.05 28.87,30.77 28.07,29.49 26.93,28.09 25.79,26.70 24.82,25.57 23.86,24.44 22.67,23.13 21.49,21.83 20.69,21.05 19.88,20.28 18.88,19.33 17.89,18.38 17.03,17.52 16.17,16.66 14.43,14.94 12.69,13.22 11.49,12.11 10.30,11.00 9.25,9.95 8.19,8.90 6.99,7.64 5.79,6.38 4.67,5.34 3.56,4.30 2.52,3.59 1.48,2.87 0.58,2.72 -0.31,2.57 -0.61,2.50 -0.92,2.42 -1.19,2.28 -1.47,2.13 -1.71,1.92 -1.94,1.72 -2.12,1.46 -2.30,1.20 -2.41,0.91 -2.52,0.61 -2.55,0.30 -2.59,-0.00 -2.55,-0.31 -2.52,-0.62 -2.40,-0.91 -2.29,-1.20 -2.12,-1.46 -1.94,-1.72 -1.70,-1.93 -1.47,-2.13 -1.19,-2.28 -0.91,-2.42 -0.61,-2.50 -0.31,-2.57 0.00,-2.57 0.31,-2.57 0.31,-2.57 L 0.31,-2.57 Z"></path></g><g stroke-linecap="round" transform="translate(1006.2402701963445 255.6425585198465) rotate(0 34.23903458656241 71.28378224663751)"><path d="M36.03 0.62 C41.47 0.37, 49.09 4.79, 53.99 11.34 C58.89 17.89, 63.04 28.98, 65.42 39.92 C67.79 50.86, 68.72 64.98, 68.23 76.97 C67.73 88.97, 65.73 102.07, 62.43 111.88 C59.12 121.69, 53.56 130.84, 48.4 135.83 C43.24 140.83, 37.03 142.67, 31.46 141.86 C25.9 141.04, 19.55 137.58, 15.01 130.95 C10.46 124.33, 6.56 112.95, 4.21 102.1 C1.87 91.24, 0.66 77.56, 0.93 65.82 C1.2 54.08, 2.61 41.63, 5.84 31.68 C9.06 21.73, 13.69 10.99, 20.27 6.12 C26.86 1.26, 40.01 1.64, 45.34 2.5 C50.66 3.37, 52.63 10.1, 52.24 11.31 M38.03 -0.68 C43.1 -0.87, 48.28 5.53, 52.98 12.56 C57.68 19.58, 63.55 30.22, 66.21 41.46 C68.87 52.71, 69.75 67.81, 68.93 80.03 C68.12 92.25, 64.9 105.64, 61.32 114.8 C57.73 123.96, 52.49 130.62, 47.43 135.02 C42.36 139.41, 36.36 141.97, 30.93 141.15 C25.5 140.33, 19.58 137.18, 14.83 130.09 C10.08 123.01, 4.93 109.48, 2.41 98.64 C-0.1 87.8, -1.21 76.82, -0.26 65.04 C0.68 53.27, 4.47 38.08, 8.08 28.02 C11.69 17.95, 16.41 9.15, 21.41 4.65 C26.41 0.15, 35.5 1.27, 38.08 1 C40.66 0.74, 36.8 2.06, 36.89 3.05" stroke="#343a40" stroke-width="4" fill="none"></path></g><g stroke-linecap="round"><g transform="translate(1042.3730201404667 254.92317165117322) rotate(0 98.83754913759003 -0.810561075406099)"><path d="M0.9 0.18 C33.76 -0.31, 165.19 -1.69, 197.76 -1.8 M-0.09 -0.78 C32.61 -0.62, 163.97 -0.39, 197.11 -0.69" stroke="#343a40" stroke-width="4" fill="none"></path></g></g><mask></mask><g stroke-linecap="round"><g transform="translate(1044.5719523829246 398.2323571601827) rotate(0 98.69808864222318 -1.018705446052138)"><path d="M0.18 0.57 C32.7 -0.01, 163.39 -2.33, 196.3 -2.61 M-1.19 -0.17 C31.62 -0.71, 165.53 -1.03, 198.59 -1.53" stroke="#343a40" stroke-width="4" fill="none"></path></g></g><mask></mask><g stroke-opacity="0.8" fill-opacity="0.8" transform="translate(1241.4373663105068 253.3271920388753) rotate(0 19.446284314759623 70.96522569766074)" stroke="none"><path fill="#000000" d="M 0.31,-2.57 Q 0.31,-2.57 1.22,-2.50 2.14,-2.43 3.91,-1.79 5.68,-1.16 6.88,-0.36 8.07,0.43 8.97,1.28 9.87,2.12 11.20,3.43 12.54,4.74 13.54,5.91 14.54,7.08 15.57,8.20 16.60,9.32 18.31,11.06 20.03,12.80 20.89,13.66 21.76,14.51 22.70,15.44 23.65,16.37 24.45,17.09 25.25,17.82 26.63,19.17 28.01,20.53 29.14,21.69 30.28,22.85 31.48,24.23 32.68,25.62 33.77,27.19 34.86,28.77 35.80,30.49 36.73,32.21 37.16,33.24 37.60,34.28 38.00,35.50 38.40,36.72 38.73,38.01 39.06,39.30 39.35,40.63 39.64,41.95 39.91,43.39 40.18,44.82 40.42,46.38 40.66,47.93 40.85,49.56 41.04,51.19 41.18,52.87 41.33,54.55 41.43,56.25 41.54,57.94 41.59,59.63 41.65,61.31 41.66,63.01 41.67,64.70 41.65,66.46 41.62,68.22 41.58,70.04 41.54,71.86 41.45,73.74 41.35,75.62 41.14,77.53 40.94,79.44 40.29,82.29 39.65,85.14 39.06,87.24 38.47,89.33 37.97,91.08 37.46,92.82 37.05,94.29 36.63,95.76 36.26,97.02 35.89,98.29 35.54,99.46 35.18,100.63 34.86,101.73 34.54,102.83 33.98,104.47 33.42,106.10 33.03,107.44 32.64,108.77 31.83,110.67 31.01,112.57 30.46,114.02 29.90,115.46 29.23,117.00 28.55,118.53 28.01,119.71 27.47,120.89 26.93,121.93 26.39,122.97 25.47,124.54 24.56,126.12 23.49,127.68 22.43,129.24 21.52,130.41 20.61,131.57 19.80,132.59 19.00,133.61 18.24,134.52 17.49,135.43 16.22,136.80 14.95,138.18 13.35,139.48 11.76,140.79 10.52,141.68 9.28,142.57 8.25,143.22 7.22,143.87 6.06,144.45 4.91,145.03 2.24,145.13 -0.41,145.23 -0.94,145.15 -1.47,145.06 -1.94,144.81 -2.41,144.56 -2.78,144.17 -3.15,143.78 -3.38,143.30 -3.60,142.81 -3.66,142.28 -3.72,141.75 -3.60,141.22 -3.49,140.70 -3.21,140.24 -2.93,139.78 -2.53,139.44 -2.12,139.09 -1.62,138.89 -1.12,138.69 -0.59,138.66 -0.05,138.64 0.45,138.78 0.97,138.92 1.41,139.22 1.85,139.52 2.18,139.95 2.50,140.38 2.67,140.88 2.84,141.39 2.84,141.93 2.84,142.46 2.67,142.97 2.50,143.48 2.18,143.90 1.85,144.33 1.41,144.63 0.97,144.93 0.45,145.07 -0.05,145.22 -0.59,145.19 -1.12,145.16 -1.62,144.96 -2.12,144.76 -2.53,144.41 -2.93,144.07 -3.21,143.61 -3.49,143.15 -3.60,142.63 -3.72,142.10 -3.66,141.57 -3.60,141.04 -3.38,140.55 -3.15,140.07 -2.78,139.68 -2.41,139.29 -1.94,139.04 -1.47,138.79 -0.94,138.70 -0.41,138.62 -0.41,138.62 -0.41,138.62 1.72,138.58 3.87,138.54 4.98,138.02 6.08,137.49 7.20,136.81 8.31,136.13 9.71,135.08 11.10,134.03 12.25,132.96 13.39,131.90 14.11,131.09 14.83,130.29 15.60,129.33 16.38,128.38 17.83,126.46 19.28,124.54 20.27,123.30 21.26,122.06 22.37,120.46 23.48,118.86 24.07,117.83 24.65,116.81 25.31,115.34 25.96,113.88 26.55,112.49 27.13,111.10 27.74,109.25 28.34,107.40 28.79,106.08 29.25,104.76 29.76,103.06 30.27,101.36 30.71,100.26 31.15,99.16 31.62,98.06 32.10,96.96 32.59,95.77 33.08,94.58 33.61,93.20 34.13,91.81 34.66,90.16 35.19,88.51 35.63,86.48 36.07,84.45 36.50,81.76 36.93,79.07 37.06,77.28 37.19,75.50 37.20,73.69 37.21,71.88 37.16,70.07 37.10,68.26 37.05,66.53 36.99,64.80 36.93,63.19 36.87,61.57 36.75,59.98 36.63,58.38 36.44,56.76 36.25,55.14 36.01,53.56 35.77,51.97 35.50,50.47 35.22,48.96 34.89,47.50 34.56,46.03 34.23,44.68 33.90,43.33 33.58,42.11 33.26,40.89 32.93,39.79 32.61,38.69 31.88,36.81 31.15,34.93 30.42,33.49 29.68,32.05 28.87,30.77 28.07,29.49 26.93,28.09 25.79,26.70 24.82,25.57 23.86,24.44 22.67,23.13 21.49,21.83 20.69,21.05 19.88,20.28 18.88,19.33 17.89,18.38 17.03,17.52 16.17,16.66 14.43,14.94 12.69,13.22 11.49,12.11 10.30,11.00 9.25,9.95 8.19,8.90 6.99,7.64 5.79,6.38 4.67,5.34 3.56,4.30 2.52,3.59 1.48,2.87 0.58,2.72 -0.31,2.57 -0.61,2.50 -0.92,2.42 -1.19,2.28 -1.47,2.13 -1.71,1.92 -1.94,1.72 -2.12,1.46 -2.30,1.20 -2.41,0.91 -2.52,0.61 -2.55,0.30 -2.59,-0.00 -2.55,-0.31 -2.52,-0.62 -2.40,-0.91 -2.29,-1.20 -2.12,-1.46 -1.94,-1.72 -1.70,-1.93 -1.47,-2.13 -1.19,-2.28 -0.91,-2.42 -0.61,-2.50 -0.31,-2.57 0.00,-2.57 0.31,-2.57 0.31,-2.57 L 0.31,-2.57 Z"></path></g><g mask="url(#mask-_JBmN5MqXn-d7L8jQRuoq)" stroke-linecap="round"><g transform="translate(833.8139114251951 87.79195047616241) rotate(0 101.94198328445077 -0.8459747963275532)"><path d="M-0.92 0.28 C33.17 0.26, 170.57 -0.14, 204.8 -0.26 M0.8 -0.61 C34.73 -0.97, 170.2 -1.67, 204.01 -1.97" stroke="#000000" stroke-width="1" fill="none"></path></g><g transform="translate(833.8139114251951 87.79195047616241) rotate(0 101.94198328445077 -0.8459747963275532)"><path d="M176.36 8.98 C186.35 5.18, 195.25 2.7, 203.41 -2.79 M175.17 7.76 C182.35 6.21, 189.5 3.6, 204.77 -1.27" stroke="#000000" stroke-width="1" fill="none"></path></g><g transform="translate(833.8139114251951 87.79195047616241) rotate(0 101.94198328445077 -0.8459747963275532)"><path d="M176.22 -11.54 C186.23 -8.65, 195.18 -4.46, 203.41 -2.79 M175.03 -12.76 C182.41 -9.1, 189.6 -6.5, 204.77 -1.27" stroke="#000000" stroke-width="1" fill="none"></path></g></g><mask id="mask-_JBmN5MqXn-d7L8jQRuoq"><rect x="0" y="0" fill="#fff" width="1138.3142261630953" height="188.82559004355767"></rect><rect x="894.6380968092817" y="69.77513069246478" fill="#000" width="82.85194396972656" height="35" opacity="1"></rect></mask><g transform="translate(894.6380968092822 69.77513069246478) rotate(0 41.11779790036394 17.170844987370074)"><text x="41.42597198486328" y="0" font-family="Virgil, Segoe UI Emoji" font-size="28px" fill="#000000" text-anchor="middle" style="white-space: pre;" direction="ltr" dominant-baseline="text-before-edge">Entity</text></g><g mask="url(#mask-9m36URnhcTeFJrycfNopO)" stroke-linecap="round"><g transform="translate(835.3116340636659 327.30100452118955) rotate(0 103.99533802848623 -1.4704487316313077)"><path d="M0.15 -0.47 C34.88 -0.75, 174.25 -0.68, 209.22 -0.63 M-1.23 -1.77 C33.24 -1.89, 173 -2.43, 208.11 -2.47" stroke="#000000" stroke-width="1" fill="none"></path></g><g transform="translate(835.3116340636659 327.30100452118955) rotate(0 103.99533802848623 -1.4704487316313077)"><path d="M179.16 7.36 C191.24 4.75, 202.49 0.17, 209.86 -2.78 M180.13 8.62 C187.32 4.35, 195.26 1.57, 207.3 -2.46" stroke="#000000" stroke-width="1" fill="none"></path></g><g transform="translate(835.3116340636659 327.30100452118955) rotate(0 103.99533802848623 -1.4704487316313077)"><path d="M179.11 -13.16 C191.38 -8.14, 202.66 -5.08, 209.86 -2.78 M180.07 -11.9 C187.15 -10.45, 195.09 -7.52, 207.3 -2.46" stroke="#000000" stroke-width="1" fill="none"></path></g></g><mask id="mask-9m36URnhcTeFJrycfNopO"><rect x="0" y="0" fill="#fff" width="1144.8367027802094" height="428.46965007289765"></rect><rect x="904.8221847793593" y="309.2166817453355" fill="#000" width="70.50396728515625" height="35" opacity="1"></rect></mask><g transform="translate(904.8221847793598 309.2166817453355) rotate(0 34.484787312792605 16.61387404422274)"><text x="35.251983642578125" y="0" font-family="Virgil, Segoe UI Emoji" font-size="28px" fill="#000000" text-anchor="middle" style="white-space: pre;" direction="ltr" dominant-baseline="text-before-edge">Error</text></g><g transform="translate(1137.6195654992205 288.4910029682532) rotate(0 51.05796813964844 35)"><text x="0" y="0" font-family="Virgil, Segoe UI Emoji" font-size="28px" fill="#c92a2a" text-anchor="start" style="white-space: pre;" direction="ltr" dominant-baseline="text-before-edge">error </text><text x="0" y="35" font-family="Virgil, Segoe UI Emoji" font-size="28px" fill="#c92a2a" text-anchor="start" style="white-space: pre;" direction="ltr" dominant-baseline="text-before-edge">handling</text></g><g transform="translate(1124.9754112809194 47.11295982789494) rotate(0 55.13197326660156 35)"><text x="0" y="0" font-family="Virgil, Segoe UI Emoji" font-size="28px" fill="#2b8a3e" text-anchor="start" style="white-space: pre;" direction="ltr" dominant-baseline="text-before-edge">business</text><text x="0" y="35" font-family="Virgil, Segoe UI Emoji" font-size="28px" fill="#2b8a3e" text-anchor="start" style="white-space: pre;" direction="ltr" dominant-baseline="text-before-edge">logic</text></g><g transform="translate(665.9213131211284 56.74057408420555) rotate(0 61.361976623535156 35)"><text x="0" y="0" font-family="Virgil, Segoe UI Emoji" font-size="28px" fill="#000000" text-anchor="start" style="white-space: pre;" direction="ltr" dominant-baseline="text-before-edge">collecting</text><text x="0" y="35" font-family="Virgil, Segoe UI Emoji" font-size="28px" fill="#000000" text-anchor="start" style="white-space: pre;" direction="ltr" dominant-baseline="text-before-edge"> records</text></g><g transform="translate(674.3380924556327 298.41394281524833) rotate(0 61.36197662353527 35)"><text x="0" y="0" font-family="Virgil, Segoe UI Emoji" font-size="28px" fill="#000000" text-anchor="start" style="white-space: pre;" direction="ltr" dominant-baseline="text-before-edge">collecting</text><text x="0" y="35" font-family="Virgil, Segoe UI Emoji" font-size="28px" fill="#000000" text-anchor="start" style="white-space: pre;" direction="ltr" dominant-baseline="text-before-edge">errors</text></g></svg>