<svg version="1.1" xmlns="http://www.w3.org/2000/svg" viewBox="0 0 692.6156642945293 172.82337819768114" width="1385.2313285890586" height="345.6467563953623">
  <!-- svg-source:excalidraw -->
  
  <defs>
    <style class="style-fonts">
      @font-face {
        font-family: "Virgil";
        src: url("https://excalidraw.com/Virgil.woff2");
      }
      @font-face {
        font-family: "Cascadia";
        src: url("https://excalidraw.com/Cascadia.woff2");
      }
    </style>
  </defs>
  <g stroke-linecap="round" transform="translate(10 19.776813755512848) rotate(0 34.23903458656241 71.28378224663751)"><path d="M41.63 1.34 C47.12 2.51, 53.48 9.49, 57.77 17.29 C62.05 25.08, 65.56 36.76, 67.34 48.09 C69.11 59.42, 69.78 73.56, 68.43 85.27 C67.07 96.99, 63.03 109.32, 59.22 118.38 C55.41 127.43, 50.95 135.8, 45.54 139.62 C40.13 143.44, 32.32 143.69, 26.77 141.3 C21.22 138.91, 16.29 133.13, 12.22 125.28 C8.16 117.43, 4.22 105.7, 2.38 94.2 C0.54 82.7, 0.27 67.96, 1.19 56.3 C2.1 44.64, 4.01 32.87, 7.85 24.25 C11.69 15.62, 17.43 7.49, 24.22 4.55 C31 1.61, 43.77 5.12, 48.57 6.62 C53.37 8.12, 53.25 12.45, 53.03 13.54 M28.08 0.94 C33.35 -2.09, 41.08 0.93, 46.62 4.88 C52.16 8.82, 57.83 15.7, 61.32 24.59 C64.81 33.49, 66.82 46.39, 67.55 58.26 C68.27 70.13, 67.65 84.68, 65.69 95.81 C63.73 106.93, 59.75 117.25, 55.81 125.01 C51.86 132.77, 47.51 140.2, 42.04 142.35 C36.56 144.5, 28.8 142.17, 22.96 137.89 C17.12 133.6, 10.96 125.61, 7 116.64 C3.03 107.66, 0.06 95.7, -0.84 84.05 C-1.75 72.41, -0.73 57.96, 1.57 46.76 C3.87 35.57, 8.68 24.24, 12.97 16.87 C17.26 9.49, 24.63 4.98, 27.31 2.51 C29.98 0.04, 28.95 1.25, 29.01 2.05" stroke="#343a40" stroke-width="4" fill="none"></path></g><g stroke-linecap="round"><g transform="translate(46.132749944123134 19.05742688683958) rotate(0 98.77430067170008 -0.37764047269704903)"><path d="M0.89 0.48 C33.95 0.15, 164.82 -0.97, 197.64 -1.24 M-0.1 -0.31 C32.9 -0.53, 164.02 0.09, 196.94 0.16" stroke="#343a40" stroke-width="4" fill="none"></path></g></g><mask></mask><g stroke-linecap="round"><g transform="translate(48.33168218658011 162.36661239584905) rotate(0 98.07003498113181 -1.1966371539726595)"><path d="M0.48 0.46 C33.16 0.13, 164.11 -0.87, 196.86 -1.07 M-0.72 -0.35 C31.71 -1.1, 162.96 -2.48, 195.78 -2.85" stroke="#343a40" stroke-width="4" fill="none"></path></g></g><mask></mask><g stroke-opacity="0.8" fill-opacity="0.8" transform="translate(245.19709611416238 17.461447274541655) rotate(0 19.446284314759623 70.96522569766074)" stroke="none"><path fill="#000000" d="M 0.31,-2.57 Q 0.31,-2.57 1.22,-2.50 2.14,-2.43 3.91,-1.79 5.68,-1.16 6.88,-0.36 8.07,0.43 8.97,1.28 9.87,2.12 11.20,3.43 12.54,4.74 13.54,5.91 14.54,7.08 15.57,8.20 16.60,9.32 18.31,11.06 20.03,12.80 20.89,13.66 21.76,14.51 22.70,15.44 23.65,16.37 24.45,17.09 25.25,17.82 26.63,19.17 28.01,20.53 29.14,21.69 30.28,22.85 31.48,24.23 32.68,25.62 33.77,27.19 34.86,28.77 35.80,30.49 36.73,32.21 37.16,33.24 37.60,34.28 38.00,35.50 38.40,36.72 38.73,38.01 39.06,39.30 39.35,40.63 39.64,41.95 39.91,43.39 40.18,44.82 40.42,46.38 40.66,47.93 40.85,49.56 41.04,51.19 41.18,52.87 41.33,54.55 41.43,56.25 41.54,57.94 41.59,59.63 41.65,61.31 41.66,63.01 41.67,64.70 41.65,66.46 41.62,68.22 41.58,70.04 41.54,71.86 41.45,73.74 41.35,75.62 41.14,77.53 40.94,79.44 40.29,82.29 39.65,85.14 39.06,87.24 38.47,89.33 37.97,91.08 37.46,92.82 37.05,94.29 36.63,95.76 36.26,97.02 35.89,98.29 35.54,99.46 35.18,100.63 34.86,101.73 34.54,102.83 33.98,104.47 33.42,106.10 33.03,107.44 32.64,108.77 31.83,110.67 31.01,112.57 30.46,114.02 29.90,115.46 29.23,117.00 28.55,118.53 28.01,119.71 27.47,120.89 26.93,121.93 26.39,122.97 25.47,124.54 24.56,126.12 23.49,127.68 22.43,129.24 21.52,130.41 20.61,131.57 19.80,132.59 19.00,133.61 18.24,134.52 17.49,135.43 16.22,136.80 14.95,138.18 13.35,139.48 11.76,140.79 10.52,141.68 9.28,142.57 8.25,143.22 7.22,143.87 6.06,144.45 4.91,145.03 2.24,145.13 -0.41,145.23 -0.94,145.15 -1.47,145.06 -1.94,144.81 -2.41,144.56 -2.78,144.17 -3.15,143.78 -3.38,143.30 -3.60,142.81 -3.66,142.28 -3.72,141.75 -3.60,141.22 -3.49,140.70 -3.21,140.24 -2.93,139.78 -2.53,139.44 -2.12,139.09 -1.62,138.89 -1.12,138.69 -0.59,138.66 -0.05,138.64 0.45,138.78 0.97,138.92 1.41,139.22 1.85,139.52 2.18,139.95 2.50,140.38 2.67,140.88 2.84,141.39 2.84,141.93 2.84,142.46 2.67,142.97 2.50,143.48 2.18,143.90 1.85,144.33 1.41,144.63 0.97,144.93 0.45,145.07 -0.05,145.22 -0.59,145.19 -1.12,145.16 -1.62,144.96 -2.12,144.76 -2.53,144.41 -2.93,144.07 -3.21,143.61 -3.49,143.15 -3.60,142.63 -3.72,142.10 -3.66,141.57 -3.60,141.04 -3.38,140.55 -3.15,140.07 -2.78,139.68 -2.41,139.29 -1.94,139.04 -1.47,138.79 -0.94,138.70 -0.41,138.62 -0.41,138.62 -0.41,138.62 1.72,138.58 3.87,138.54 4.98,138.02 6.08,137.49 7.20,136.81 8.31,136.13 9.71,135.08 11.10,134.03 12.25,132.96 13.39,131.90 14.11,131.09 14.83,130.29 15.60,129.33 16.38,128.38 17.83,126.46 19.28,124.54 20.27,123.30 21.26,122.06 22.37,120.46 23.48,118.86 24.07,117.83 24.65,116.81 25.31,115.34 25.96,113.88 26.55,112.49 27.13,111.10 27.74,109.25 28.34,107.40 28.79,106.08 29.25,104.76 29.76,103.06 30.27,101.36 30.71,100.26 31.15,99.16 31.62,98.06 32.10,96.96 32.59,95.77 33.08,94.58 33.61,93.20 34.13,91.81 34.66,90.16 35.19,88.51 35.63,86.48 36.07,84.45 36.50,81.76 36.93,79.07 37.06,77.28 37.19,75.50 37.20,73.69 37.21,71.88 37.16,70.07 37.10,68.26 37.05,66.53 36.99,64.80 36.93,63.19 36.87,61.57 36.75,59.98 36.63,58.38 36.44,56.76 36.25,55.14 36.01,53.56 35.77,51.97 35.50,50.47 35.22,48.96 34.89,47.50 34.56,46.03 34.23,44.68 33.90,43.33 33.58,42.11 33.26,40.89 32.93,39.79 32.61,38.69 31.88,36.81 31.15,34.93 30.42,33.49 29.68,32.05 28.87,30.77 28.07,29.49 26.93,28.09 25.79,26.70 24.82,25.57 23.86,24.44 22.67,23.13 21.49,21.83 20.69,21.05 19.88,20.28 18.88,19.33 17.89,18.38 17.03,17.52 16.17,16.66 14.43,14.94 12.69,13.22 11.49,12.11 10.30,11.00 9.25,9.95 8.19,8.90 6.99,7.64 5.79,6.38 4.67,5.34 3.56,4.30 2.52,3.59 1.48,2.87 0.58,2.72 -0.31,2.57 -0.61,2.50 -0.92,2.42 -1.19,2.28 -1.47,2.13 -1.71,1.92 -1.94,1.72 -2.12,1.46 -2.30,1.20 -2.41,0.91 -2.52,0.61 -2.55,0.30 -2.59,-0.00 -2.55,-0.31 -2.52,-0.62 -2.40,-0.91 -2.29,-1.20 -2.12,-1.46 -1.94,-1.72 -1.70,-1.93 -1.47,-2.13 -1.19,-2.28 -0.91,-2.42 -0.61,-2.50 -0.31,-2.57 0.00,-2.57 0.31,-2.57 0.31,-2.57 L 0.31,-2.57 Z"></path></g><g transform="translate(130.5788165578474 54.574407102436595) rotate(0 55.13197326660156 35)"><text x="0" y="0" font-family="Virgil, Segoe UI Emoji" font-size="28px" fill="#2b8a3e" text-anchor="start" style="white-space: pre;" direction="ltr" dominant-baseline="text-before-edge">business</text><text x="0" y="35" font-family="Virgil, Segoe UI Emoji" font-size="28px" fill="#2b8a3e" text-anchor="start" style="white-space: pre;" direction="ltr" dominant-baseline="text-before-edge">logic</text></g><g stroke-linecap="round" transform="translate(408.0271743133626 12.315366480971193) rotate(0 34.23903458656241 71.28378224663751)"><path d="M41.63 1.34 C47.12 2.51, 53.48 9.49, 57.77 17.29 C62.05 25.08, 65.56 36.76, 67.34 48.09 C69.11 59.42, 69.78 73.56, 68.43 85.27 C67.07 96.99, 63.03 109.32, 59.22 118.38 C55.41 127.43, 50.95 135.8, 45.54 139.62 C40.13 143.44, 32.32 143.69, 26.77 141.3 C21.22 138.91, 16.29 133.13, 12.22 125.28 C8.16 117.43, 4.22 105.7, 2.38 94.2 C0.54 82.7, 0.27 67.96, 1.19 56.3 C2.1 44.64, 4.01 32.87, 7.85 24.25 C11.69 15.62, 17.43 7.49, 24.22 4.55 C31 1.61, 43.77 5.12, 48.57 6.62 C53.37 8.12, 53.25 12.45, 53.03 13.54 M28.08 0.94 C33.35 -2.09, 41.08 0.93, 46.62 4.88 C52.16 8.82, 57.83 15.7, 61.32 24.59 C64.81 33.49, 66.82 46.39, 67.55 58.26 C68.27 70.13, 67.65 84.68, 65.69 95.81 C63.73 106.93, 59.75 117.25, 55.81 125.01 C51.86 132.77, 47.51 140.2, 42.04 142.35 C36.56 144.5, 28.8 142.17, 22.96 137.89 C17.12 133.6, 10.96 125.61, 7 116.64 C3.03 107.66, 0.06 95.7, -0.84 84.05 C-1.75 72.41, -0.73 57.96, 1.57 46.76 C3.87 35.57, 8.68 24.24, 12.97 16.87 C17.26 9.49, 24.63 4.98, 27.31 2.51 C29.98 0.04, 28.95 1.25, 29.01 2.05" stroke="#343a40" stroke-width="4" fill="none"></path></g><g stroke-linecap="round"><g transform="translate(444.1599242574857 11.595979612297924) rotate(0 98.77430067170008 -0.37764047269704903)"><path d="M0.89 0.48 C33.95 0.15, 164.82 -0.97, 197.64 -1.24 M-0.1 -0.31 C32.9 -0.53, 164.02 0.09, 196.94 0.16" stroke="#343a40" stroke-width="4" fill="none"></path></g></g><mask></mask><g stroke-linecap="round"><g transform="translate(446.3588564999418 154.90516512130742) rotate(0 98.07003498113181 -1.1966371539726595)"><path d="M0.48 0.46 C33.16 0.13, 164.11 -0.87, 196.86 -1.07 M-0.72 -0.35 C31.71 -1.1, 162.96 -2.48, 195.78 -2.85" stroke="#343a40" stroke-width="4" fill="none"></path></g></g><mask></mask><g stroke-opacity="0.8" fill-opacity="0.8" transform="translate(643.2242704275241 10) rotate(0 19.446284314759623 70.96522569766074)" stroke="none"><path fill="#000000" d="M 0.31,-2.57 Q 0.31,-2.57 1.22,-2.50 2.14,-2.43 3.91,-1.79 5.68,-1.16 6.88,-0.36 8.07,0.43 8.97,1.28 9.87,2.12 11.20,3.43 12.54,4.74 13.54,5.91 14.54,7.08 15.57,8.20 16.60,9.32 18.31,11.06 20.03,12.80 20.89,13.66 21.76,14.51 22.70,15.44 23.65,16.37 24.45,17.09 25.25,17.82 26.63,19.17 28.01,20.53 29.14,21.69 30.28,22.85 31.48,24.23 32.68,25.62 33.77,27.19 34.86,28.77 35.80,30.49 36.73,32.21 37.16,33.24 37.60,34.28 38.00,35.50 38.40,36.72 38.73,38.01 39.06,39.30 39.35,40.63 39.64,41.95 39.91,43.39 40.18,44.82 40.42,46.38 40.66,47.93 40.85,49.56 41.04,51.19 41.18,52.87 41.33,54.55 41.43,56.25 41.54,57.94 41.59,59.63 41.65,61.31 41.66,63.01 41.67,64.70 41.65,66.46 41.62,68.22 41.58,70.04 41.54,71.86 41.45,73.74 41.35,75.62 41.14,77.53 40.94,79.44 40.29,82.29 39.65,85.14 39.06,87.24 38.47,89.33 37.97,91.08 37.46,92.82 37.05,94.29 36.63,95.76 36.26,97.02 35.89,98.29 35.54,99.46 35.18,100.63 34.86,101.73 34.54,102.83 33.98,104.47 33.42,106.10 33.03,107.44 32.64,108.77 31.83,110.67 31.01,112.57 30.46,114.02 29.90,115.46 29.23,117.00 28.55,118.53 28.01,119.71 27.47,120.89 26.93,121.93 26.39,122.97 25.47,124.54 24.56,126.12 23.49,127.68 22.43,129.24 21.52,130.41 20.61,131.57 19.80,132.59 19.00,133.61 18.24,134.52 17.49,135.43 16.22,136.80 14.95,138.18 13.35,139.48 11.76,140.79 10.52,141.68 9.28,142.57 8.25,143.22 7.22,143.87 6.06,144.45 4.91,145.03 2.24,145.13 -0.41,145.23 -0.94,145.15 -1.47,145.06 -1.94,144.81 -2.41,144.56 -2.78,144.17 -3.15,143.78 -3.38,143.30 -3.60,142.81 -3.66,142.28 -3.72,141.75 -3.60,141.22 -3.49,140.70 -3.21,140.24 -2.93,139.78 -2.53,139.44 -2.12,139.09 -1.62,138.89 -1.12,138.69 -0.59,138.66 -0.05,138.64 0.45,138.78 0.97,138.92 1.41,139.22 1.85,139.52 2.18,139.95 2.50,140.38 2.67,140.88 2.84,141.39 2.84,141.93 2.84,142.46 2.67,142.97 2.50,143.48 2.18,143.90 1.85,144.33 1.41,144.63 0.97,144.93 0.45,145.07 -0.05,145.22 -0.59,145.19 -1.12,145.16 -1.62,144.96 -2.12,144.76 -2.53,144.41 -2.93,144.07 -3.21,143.61 -3.49,143.15 -3.60,142.63 -3.72,142.10 -3.66,141.57 -3.60,141.04 -3.38,140.55 -3.15,140.07 -2.78,139.68 -2.41,139.29 -1.94,139.04 -1.47,138.79 -0.94,138.70 -0.41,138.62 -0.41,138.62 -0.41,138.62 1.72,138.58 3.87,138.54 4.98,138.02 6.08,137.49 7.20,136.81 8.31,136.13 9.71,135.08 11.10,134.03 12.25,132.96 13.39,131.90 14.11,131.09 14.83,130.29 15.60,129.33 16.38,128.38 17.83,126.46 19.28,124.54 20.27,123.30 21.26,122.06 22.37,120.46 23.48,118.86 24.07,117.83 24.65,116.81 25.31,115.34 25.96,113.88 26.55,112.49 27.13,111.10 27.74,109.25 28.34,107.40 28.79,106.08 29.25,104.76 29.76,103.06 30.27,101.36 30.71,100.26 31.15,99.16 31.62,98.06 32.10,96.96 32.59,95.77 33.08,94.58 33.61,93.20 34.13,91.81 34.66,90.16 35.19,88.51 35.63,86.48 36.07,84.45 36.50,81.76 36.93,79.07 37.06,77.28 37.19,75.50 37.20,73.69 37.21,71.88 37.16,70.07 37.10,68.26 37.05,66.53 36.99,64.80 36.93,63.19 36.87,61.57 36.75,59.98 36.63,58.38 36.44,56.76 36.25,55.14 36.01,53.56 35.77,51.97 35.50,50.47 35.22,48.96 34.89,47.50 34.56,46.03 34.23,44.68 33.90,43.33 33.58,42.11 33.26,40.89 32.93,39.79 32.61,38.69 31.88,36.81 31.15,34.93 30.42,33.49 29.68,32.05 28.87,30.77 28.07,29.49 26.93,28.09 25.79,26.70 24.82,25.57 23.86,24.44 22.67,23.13 21.49,21.83 20.69,21.05 19.88,20.28 18.88,19.33 17.89,18.38 17.03,17.52 16.17,16.66 14.43,14.94 12.69,13.22 11.49,12.11 10.30,11.00 9.25,9.95 8.19,8.90 6.99,7.64 5.79,6.38 4.67,5.34 3.56,4.30 2.52,3.59 1.48,2.87 0.58,2.72 -0.31,2.57 -0.61,2.50 -0.92,2.42 -1.19,2.28 -1.47,2.13 -1.71,1.92 -1.94,1.72 -2.12,1.46 -2.30,1.20 -2.41,0.91 -2.52,0.61 -2.55,0.30 -2.59,-0.00 -2.55,-0.31 -2.52,-0.62 -2.40,-0.91 -2.29,-1.20 -2.12,-1.46 -1.94,-1.72 -1.70,-1.93 -1.47,-2.13 -1.19,-2.28 -0.91,-2.42 -0.61,-2.50 -0.31,-2.57 0.00,-2.57 0.31,-2.57 0.31,-2.57 L 0.31,-2.57 Z"></path></g><g transform="translate(496.80786262852143 24.115534187601753) rotate(0 53.381980895996094 17.5)"><text x="0" y="0" font-family="Virgil, Segoe UI Emoji" font-size="28px" fill="#2b8a3e" text-anchor="start" style="white-space: pre;" direction="ltr" dominant-baseline="text-before-edge">Success</text></g><g transform="translate(514.4767708254672 67.27525979761805) rotate(0 75.12396240234375 17.5)"><text x="0" y="0" font-family="Virgil, Segoe UI Emoji" font-size="28px" fill="#e67700" text-anchor="start" style="white-space: pre;" direction="ltr" dominant-baseline="text-before-edge">Bank Error</text></g><g transform="translate(495.7742230611261 106.24558095692609) rotate(0 68.26396942138672 17.5)"><text x="0" y="0" font-family="Virgil, Segoe UI Emoji" font-size="28px" fill="#c92a2a" text-anchor="start" style="white-space: pre;" direction="ltr" dominant-baseline="text-before-edge">Throwable</text></g><g stroke-linecap="round"><g transform="translate(287.4517430751562 90.8298422959534) rotate(0 79.40231230971858 -2.8879403090594593)"><path d="M-0.92 0.28 C25.65 -0.42, 133.01 -3.55, 159.72 -4.34 M0.8 -0.61 C27.21 -1.65, 132.64 -5.08, 158.93 -6.06" stroke="#000000" stroke-width="1" fill="none"></path></g><g transform="translate(287.4517430751562 90.8298422959534) rotate(0 79.40231230971858 -2.8879403090594593)"><path d="M131.58 5.67 C141.47 1.62, 150.27 -1.12, 158.33 -6.88 M130.4 4.45 C137.49 2.71, 144.56 -0.1, 159.69 -5.35" stroke="#000000" stroke-width="1" fill="none"></path></g><g transform="translate(287.4517430751562 90.8298422959534) rotate(0 79.40231230971858 -2.8879403090594593)"><path d="M130.87 -14.84 C140.97 -12.2, 150 -8.27, 158.33 -6.88 M129.68 -16.06 C137.13 -12.59, 144.38 -10.2, 159.69 -5.35" stroke="#000000" stroke-width="1" fill="none"></path></g></g><mask></mask></svg>